<?xml version="1.0" encoding="utf-8"?><!-- Uploaded to: SVG Repo, www.svgrepo.com, Generator: SVG Repo Mixer Tools -->
<svg width="800px" height="800px" viewBox="0 -0.5 25 25" fill="none" xmlns="http://www.w3.org/2000/svg">
<path fill-rule="evenodd" clip-rule="evenodd" d="M10.921 17.95C10.9078 18.514 10.4417 18.9615 9.87768 18.9519C9.31363 18.9422 8.86319 18.479 8.86932 17.9149C8.87546 17.3508 9.33585 16.8974 9.89998 16.9C10.4713 16.9094 10.9277 17.3787 10.921 17.95Z" stroke="#000000" stroke-width="1.5" stroke-linecap="round" stroke-linejoin="round"/>
<path fill-rule="evenodd" clip-rule="evenodd" d="M16.391 17.95C16.3778 18.5134 15.9127 18.9606 15.3493 18.9519C14.7859 18.9432 14.335 18.4817 14.3393 17.9182C14.3436 17.3547 14.8015 16.9002 15.365 16.9C15.6403 16.9032 15.903 17.0156 16.0954 17.2125C16.2879 17.4094 16.3942 17.6747 16.391 17.95Z" stroke="#000000" stroke-width="1.5" stroke-linecap="round" stroke-linejoin="round"/>
<path fill-rule="evenodd" clip-rule="evenodd" d="M20.13 7.80005H10.237L9.55295 13.4C9.54868 13.7671 9.69042 14.1208 9.94697 14.3834C10.2035 14.646 10.5539 14.7958 10.921 14.8H16.985C17.4691 14.7981 17.9157 14.5392 18.158 14.12L21.3 9.92005C21.5567 9.49222 21.5663 8.96009 21.3252 8.52326C21.0841 8.08642 20.6288 7.81091 20.13 7.80005V7.80005Z" stroke="#000000" stroke-width="1.5" stroke-linecap="round" stroke-linejoin="round"/>
<path d="M9.50841 7.97794C9.60668 8.38032 10.0125 8.62686 10.4149 8.52859C10.8173 8.43032 11.0639 8.02445 10.9656 7.62206L9.50841 7.97794ZM9.582 5.118L10.3106 4.94006L10.3103 4.93897L9.582 5.118ZM9.432 5L9.43451 4.25H9.432V5ZM6.818 4.25C6.40379 4.25 6.068 4.58579 6.068 5C6.068 5.41421 6.40379 5.75 6.818 5.75V4.25ZM7.363 9.639C7.77721 9.639 8.113 9.30321 8.113 8.889C8.113 8.47479 7.77721 8.139 7.363 8.139V9.639ZM4.5 8.139C4.08579 8.139 3.75 8.47479 3.75 8.889C3.75 9.30321 4.08579 9.639 4.5 9.639V8.139ZM7.364 11.972C7.77821 11.972 8.114 11.6362 8.114 11.222C8.114 10.8078 7.77821 10.472 7.364 10.472V11.972ZM6.432 10.472C6.01779 10.472 5.682 10.8078 5.682 11.222C5.682 11.6362 6.01779 11.972 6.432 11.972V10.472ZM10.9656 7.62206L10.3106 4.94006L8.85341 5.29594L9.50841 7.97794L10.9656 7.62206ZM10.3103 4.93897C10.2111 4.53551 9.84999 4.2514 9.43451 4.25L9.42949 5.75C9.15633 5.74908 8.91888 5.56229 8.85368 5.29703L10.3103 4.93897ZM9.432 4.25H6.818V5.75H9.432V4.25ZM7.363 8.139H4.5V9.639H7.363V8.139ZM7.364 10.472H6.432V11.972H7.364V10.472Z" fill="#000000"/>
</svg>